PathFileType	4	(X/Y/Z)	C:/Users/opensim2020/Desktop/walking_exp_matlab/subject06_walking18_straight_03.trc	
DataRate	CameraRate	NumFrames	NumMarkers	Units	OrigDataRate	OrigDataStartFrame	OrigNumFrames	
100.00	100.00	4	47	mm	100.00	3469	309	
Frame#	Time	LFHD			RFHD			LBHD			RBHD			C7			T10			CLAV			STRN			RBAK			LSHO			LUPA			LELB			LFRM			LWRA			LWRB			LFIN			RSHO			RUPA			RELB			RFRM			RWRA			RWRB			RFIN			LASI			RASI			LPSI			RPSI			LTHI			LKNE			LTIB			LANK			LHEE			LTOE			RTHI			RKNE			RTIB			RANK			RHEE			RTOE			*39			*40			*41			*42			*43			*44			*45			*46			
		X1	Y1	Z1	X2	Y2	Z2	X3	Y3	Z3	X4	Y4	Z4	X5	Y5	Z5	X6	Y6	Z6	X7	Y7	Z7	X8	Y8	Z8	X9	Y9	Z9	X10	Y10	Z10	X11	Y11	Z11	X12	Y12	Z12	X13	Y13	Z13	X14	Y14	Z14	X15	Y15	Z15	X16	Y16	Z16	X17	Y17	Z17	X18	Y18	Z18	X19	Y19	Z19	X20	Y20	Z20	X21	Y21	Z21	X22	Y22	Z22	X23	Y23	Z23	X24	Y24	Z24	X25	Y25	Z25	X26	Y26	Z26	X27	Y27	Z27	X28	Y28	Z28	X29	Y29	Z29	X30	Y30	Z30	X31	Y31	Z31	X32	Y32	Z32	X33	Y33	Z33	X34	Y34	Z34	X35	Y35	Z35	X36	Y36	Z36	X37	Y37	Z37	X38	Y38	Z38	X39	Y39	Z39	X40	Y40	Z40	X41	Y41	Z41	X42	Y42	Z42	X43	Y43	Z43	X44	Y44	Z44	X45	Y45	Z45	X46	Y46	Z46	X47	Y47	Z47	

155	1.540	1330.64990	236.05487	1670.93579	1461.92334	230.83720	1659.82410	1325.37964	102.12627	1618.62830	1454.71753	98.64578	1612.88525	1380.89355	96.57236	1460.89587	1393.61194	51.72622	1134.13794	1389.89160	203.79816	1381.52673	1388.68713	239.13805	1205.35229	1458.69421	14.57713	1294.21997	1224.47864	161.72093	1411.81335	1151.60657	179.69315	1209.76758	1138.63782	193.72156	1097.71277	1131.06812	265.07550	964.30389	1189.90662	354.91940	881.73016	1147.25793	305.92593	853.00787	1157.40344	373.01398	793.51575	1546.84521	150.54758	1416.25928	1634.39319	102.52647	1220.07397	1646.60657	106.96800	1097.89331	1664.46375	120.04923	978.40723	1635.87964	178.54478	838.62390	1673.71570	124.24046	840.48260	1677.48743	160.78284	764.44061	1301.49597	228.35818	966.42462	1522.70972	215.02480	977.18414	1320.85596	69.26270	1001.53760	1488.67273	65.37150	1002.89441	1247.77185	135.57549	655.47540	1270.44141	116.54244	492.48068	1288.66553	65.24780	240.16344	1341.14624	62.21434	67.91027	1386.78491	22.58034	54.93040	1349.53784	209.31084	39.97536	1588.50244	222.42920	650.63336	1565.80933	268.60284	532.53247	1568.70740	219.22804	275.84119	1531.16760	190.07762	90.78877	1486.78369	149.66231	64.54647	1530.78479	337.76910	55.09245	1386.08325	134.25935	1710.88623																					 
156	1.550	1331.28345	242.16310	1670.62976	1462.73535	237.06252	1659.29504	1325.76990	108.23649	1618.58203	1455.11902	104.56502	1612.59656	1381.01501	102.37317	1460.62158	1393.58325	57.47216	1133.88989	1390.02405	209.53175	1381.17639	1388.66748	244.86169	1204.96729	1458.59290	20.32597	1293.84741	1224.66565	167.61542	1411.71326	1151.82825	186.23405	1209.74097	1138.97205	200.42365	1097.75085	1131.98181	273.61816	965.06647	1191.44409	364.05322	883.89752	1149.05066	315.45480	854.30353	1159.58313	383.22287	795.67877	1547.02710	156.06953	1415.86316	1634.21521	107.67564	1219.58154	1646.25806	111.95232	1097.43567	1664.09827	124.53740	977.88019	1635.59753	182.66710	837.84857	1673.20703	128.23360	839.90417	1677.06458	164.47441	763.71722	1301.23621	233.74026	966.02985	1522.41504	221.01277	976.78802	1320.79504	74.69936	1001.23761	1488.50635	71.44733	1002.60577	1247.55408	139.91972	655.20850	1270.57349	119.64357	492.38446	1288.57654	67.04123	240.20995	1341.23804	62.51475	68.02063	1386.84595	22.67827	55.23438	1349.45972	209.49698	39.99897	1588.79480	227.92999	650.36377	1565.77783	274.80893	532.54126	1568.43469	232.95206	274.61087	1530.86877	210.97818	88.53460	1486.26233	171.56801	61.35308	1531.11511	359.68576	56.40635	1386.74255	140.43069	1710.65210																					 
157	1.560	1331.76221	248.39124	1670.31848	1463.41699	243.02440	1658.70654	1326.23376	114.31876	1618.46094	1455.54626	110.51402	1612.19592	1381.25464	108.14388	1460.30103	1393.61572	63.37778	1133.48376	1390.30737	215.34579	1380.84033	1388.75806	250.57684	1204.59619	1458.57922	26.06813	1293.47375	1224.95813	173.54898	1411.55139	1152.06580	192.70325	1209.74280	1139.25964	207.50143	1097.62927	1133.44226	281.83267	965.79230	1193.07568	373.09537	886.10052	1150.79224	324.92432	855.61462	1161.82104	393.40024	797.87823	1547.24634	161.66823	1415.43860	1634.07458	112.87292	1219.12390	1645.94617	116.83008	1096.93433	1663.73694	129.01547	977.33575	1635.32568	186.81822	837.03223	1672.73621	132.18849	839.34204	1676.55298	168.13730	762.92444	1301.06689	239.34993	965.74976	1522.11853	226.94612	976.39362	1320.75769	80.16125	1000.90106	1488.48474	77.40646	1002.24945	1247.56287	144.18924	654.88660	1270.45496	123.49896	491.95969	1288.55188	68.83028	240.24034	1341.45923	62.81314	68.17407	1387.09351	23.03939	55.43448	1349.53491	209.63129	40.02865	1589.35107	233.75117	650.15594	1565.72827	280.79352	532.35962	1568.06555	246.34398	273.53067	1530.68018	231.56602	86.70176	1485.64429	193.45274	58.62415	1531.58032	381.15454	57.44157	1387.42358	146.57378	1710.35596																					 
158	1.570	1332.83740	254.54556	1669.87231	1464.01379	248.76390	1658.07117	1326.73035	120.41821	1618.26282	1456.01099	116.38049	1611.78271	1381.58411	113.97401	1459.92175	1393.88501	69.10245	1133.11853	1390.53748	221.18231	1380.41199	1388.85132	256.36526	1204.15308	1458.70544	31.85535	1293.04077	1225.26001	179.50999	1411.38953	1152.35474	199.11191	1209.67188	1139.61377	214.24892	1097.53491	1134.24097	289.84601	966.54523	1194.68762	381.96066	888.26996	1152.56812	334.23401	856.96606	1164.14319	403.34647	799.98346	1547.56238	167.36038	1414.93701	1634.08875	118.15581	1218.60730	1645.74756	121.86892	1096.41016	1663.46106	133.57526	976.74280	1635.01904	190.92459	836.15613	1672.36804	136.21742	838.72003	1676.13550	171.87079	762.16333	1300.54382	244.44031	965.15100	1521.77820	233.10245	975.88019	1320.81396	85.66797	1000.49353	1488.53076	83.45641	1001.84460	1247.54236	148.65057	654.52747	1270.60742	126.66746	491.84860	1288.62756	70.64308	240.31775	1341.65564	63.15427	68.32331	1387.25745	23.26788	55.71154	1349.58923	209.73744	39.87553	1589.34021	239.02422	649.60248	1565.67273	286.75735	532.13959	1567.96729	259.84064	272.49329	1530.56799	251.98804	85.25797	1485.27808	214.58058	56.91606	1532.22754	402.36459	58.38718	1388.11694	152.70338	1710.02112																					 
